<svg width="401" height="221" viewBox="0 0 401 221" fill="none" xmlns="http://www.w3.org/2000/svg">
<path d="M76.7558 183.476C139.019 211.433 77.3575 158.427 137.344 174.126C203.075 191.33 294.776 186.244 280.906 117.946C267.037 49.6485 246.998 46.3143 180.8 59.7572C114.602 73.2002 -91.6302 107.856 76.7558 183.476Z" stroke="#FF35AE" stroke-opacity="0.5" stroke-width="0.35" stroke-miterlimit="10" stroke-linecap="round"/>
<path d="M77.2781 183.37C138.64 211.575 79.2261 158.33 139.052 173.516C204.51 190.172 297.331 185.513 283.036 117.758C268.569 49.7933 247.031 45.8196 181.297 59.2516C115.832 72.597 -87.7626 107.52 77.2781 183.37Z" stroke="#FF35AE" stroke-opacity="0.5" stroke-width="0.35" stroke-miterlimit="10" stroke-linecap="round"/>
<path d="M77.7907 183.267C138.258 211.723 81.0921 158.241 140.75 172.909C205.937 189.022 299.882 184.784 285.169 117.569C270.104 49.9443 247.058 45.32 181.777 58.7437C117.059 71.9953 -83.8472 107.194 77.7907 183.267Z" stroke="#FF35AE" stroke-opacity="0.5" stroke-width="0.35" stroke-miterlimit="10" stroke-linecap="round"/>
<path d="M78.3034 183.162C137.876 211.871 82.9569 158.144 142.455 172.299C207.375 187.869 302.625 184.015 287.307 117.379C271.828 50.0435 247.087 44.826 182.295 58.2339C118.287 71.399 -79.953 106.885 78.3034 183.162Z" stroke="#FF35AE" stroke-opacity="0.5" stroke-width="0.35" stroke-miterlimit="10" stroke-linecap="round"/>
<path d="M78.8135 183.058C137.499 212.031 84.8192 158.048 144.162 171.714C208.793 186.746 305.223 183.313 289.442 117.214C273.423 50.1941 247.119 44.3566 182.766 57.7523C119.499 70.799 -76.0518 106.593 78.8135 183.058Z" stroke="#FF35AE" stroke-opacity="0.5" stroke-width="0.35" stroke-miterlimit="10" stroke-linecap="round"/>
<path d="M79.339 182.952C137.139 212.188 86.7088 157.947 145.862 171.08C210.221 185.57 307.838 182.494 291.576 117C275.013 50.302 247.154 43.8297 183.273 57.2195C120.751 70.1921 -72.1481 106.327 79.339 182.952Z" stroke="#FF35AE" stroke-opacity="0.5" stroke-width="0.35" stroke-miterlimit="10" stroke-linecap="round"/>
<path d="M79.8526 182.848C136.773 212.352 88.5567 157.855 147.568 170.471C211.65 184.426 310.437 181.78 293.709 116.811C276.6 50.4292 247.184 43.3357 183.79 56.7037C121.979 69.5897 -68.2418 106.073 79.8526 182.848Z" stroke="#FF35AE" stroke-opacity="0.5" stroke-width="0.35" stroke-miterlimit="10" stroke-linecap="round"/>
<path d="M80.3677 182.743C136.418 212.526 90.4493 157.637 149.276 169.866C213.105 183.129 313.038 181.033 295.843 116.615C278.189 50.5555 247.216 42.8409 184.268 56.2016C123.208 68.9865 -64.3337 105.851 80.3677 182.743Z" stroke="#FF35AE" stroke-opacity="0.5" stroke-width="0.35" stroke-miterlimit="10" stroke-linecap="round"/>
<path d="M80.888 182.637C136.067 212.701 92.3191 157.527 150.988 169.256C214.56 181.954 315.669 180.287 297.988 116.423C279.79 50.6804 247.257 42.3384 184.774 55.6883C124.437 68.3904 -60.4239 105.641 80.888 182.637Z" stroke="#FF35AE" stroke-opacity="0.5" stroke-width="0.35" stroke-miterlimit="10" stroke-linecap="round"/>
<path d="M81.4031 182.533C135.72 212.887 94.1839 157.419 152.684 168.649C215.963 180.796 318.263 179.542 300.123 116.234C281.365 50.8038 247.288 41.8444 185.264 55.1846C125.67 67.8064 -56.5168 105.446 81.4031 182.533Z" stroke="#FF35AE" stroke-opacity="0.5" stroke-width="0.35" stroke-miterlimit="10" stroke-linecap="round"/>
<path d="M81.9162 182.429C135.371 213.073 96.0527 157.309 154.383 168.04C217.396 179.644 320.872 178.787 302.25 116.046C282.934 50.9344 247.312 41.3514 185.751 54.6746C126.9 67.1841 -52.6029 105.293 81.9162 182.429Z" stroke="#FF35AE" stroke-opacity="0.5" stroke-width="0.35" stroke-miterlimit="10" stroke-linecap="round"/>
<path d="M82.3989 182.33C135 213.277 97.891 157.205 156.057 167.437C218.79 178.456 323.416 178.052 304.352 115.863C284.485 51.0689 247.309 40.8573 186.214 54.1757C128.127 66.5817 -48.6893 105.172 82.3989 182.33Z" stroke="#FF35AE" stroke-opacity="0.5" stroke-width="0.35" stroke-miterlimit="10" stroke-linecap="round"/>
<path d="M82.9513 182.219C134.725 213.442 99.7871 157.09 157.796 166.821C220.25 177.299 326.042 177.301 306.518 115.667C286.092 51.1859 247.411 40.516 186.74 53.6583C129.384 66.1084 -44.7751 105.065 82.9513 182.219Z" stroke="#FF35AE" stroke-opacity="0.5" stroke-width="0.35" stroke-miterlimit="10" stroke-linecap="round"/>
<path d="M83.4634 182.114C134.369 213.688 101.656 156.986 159.494 166.212C221.68 176.135 328.626 176.551 308.65 115.478C287.659 51.3103 247.435 40.0032 187.233 53.1531C130.612 65.5181 -40.8712 104.99 83.4634 182.114Z" stroke="#FF35AE" stroke-opacity="0.5" stroke-width="0.35" stroke-miterlimit="10" stroke-linecap="round"/>
<path d="M83.9762 182.01C134.021 213.913 103.514 156.853 161.198 165.603C223.103 174.967 331.212 175.808 310.782 115.289C289.227 51.4353 247.475 39.5331 187.726 52.6425C131.841 64.9223 -36.9615 104.942 83.9762 182.01Z" stroke="#FF35AE" stroke-opacity="0.5" stroke-width="0.35" stroke-miterlimit="10" stroke-linecap="round"/>
<path d="M84.4902 181.906C133.717 214.134 105.389 156.773 162.904 164.993C224.53 173.81 333.794 175.065 312.916 115.1C290.795 51.5595 247.479 39.0311 188.227 52.136C133.077 64.3305 -33.0562 104.925 84.4902 181.906Z" stroke="#FF35AE" stroke-opacity="0.5" stroke-width="0.35" stroke-miterlimit="10" stroke-linecap="round"/>
<path d="M85.0127 181.8C133.397 214.354 107.256 156.665 164.607 164.384C225.965 172.652 336.377 174.316 315.058 114.909C292.374 51.6887 247.542 38.5627 188.723 51.6245C134.309 63.7339 -29.1602 104.943 85.0127 181.8Z" stroke="#FF35AE" stroke-opacity="0.5" stroke-width="0.35" stroke-miterlimit="10" stroke-linecap="round"/>
<path d="M85.5269 181.695C133.086 214.629 109.122 156.568 166.313 163.774C227.39 171.483 338.957 173.567 317.192 114.719C293.925 51.8167 247.569 38.0498 189.218 51.1193C135.539 63.1372 -25.2615 104.986 85.5269 181.695Z" stroke="#FF35AE" stroke-opacity="0.5" stroke-width="0.35" stroke-miterlimit="10" stroke-linecap="round"/>
<path d="M86.0379 181.591C132.767 214.88 110.983 156.459 168.011 163.172C228.812 170.32 341.529 172.826 319.328 114.529C295.486 51.9489 247.61 37.5598 189.714 50.6072C136.765 62.5412 -21.3704 105.069 86.0379 181.591Z" stroke="#FF35AE" stroke-opacity="0.5" stroke-width="0.35" stroke-miterlimit="10" stroke-linecap="round"/>
<path d="M86.5843 181.481C132.487 215.143 112.874 156.352 169.743 162.558C230.266 169.159 344.128 172.094 321.481 114.33C297.06 52.06 247.662 37.0683 190.23 50.0987C137.997 61.945 -17.4867 105.18 86.5843 181.481Z" stroke="#FF35AE" stroke-opacity="0.5" stroke-width="0.35" stroke-miterlimit="10" stroke-linecap="round"/>
<path d="M87.0752 181.381C132.153 215.429 114.716 156.254 171.426 161.953C231.669 168.007 346.665 171.315 323.592 114.146C298.594 52.1916 247.675 36.6096 190.7 49.5922C139.233 61.3471 -13.6151 105.331 87.0752 181.381Z" stroke="#FF35AE" stroke-opacity="0.5" stroke-width="0.35" stroke-miterlimit="10" stroke-linecap="round"/>
<path d="M87.5865 181.277C131.842 215.716 116.573 156.127 173.122 161.339C233.091 166.838 349.264 170.581 325.721 113.95C300.135 52.3149 247.672 36.0896 191.185 49.0823C140.484 60.746 -9.75148 105.522 87.5865 181.277Z" stroke="#FF35AE" stroke-opacity="0.5" stroke-width="0.35" stroke-miterlimit="10" stroke-linecap="round"/>
<path d="M88.103 181.172C131.538 216.016 118.477 156.049 174.82 160.737C234.51 165.69 351.789 169.851 327.847 113.769C301.702 52.4464 247.726 35.6038 191.677 48.5782C141.692 60.1542 -5.89552 105.741 88.103 181.172Z" stroke="#FF35AE" stroke-opacity="0.5" stroke-width="0.35" stroke-miterlimit="10" stroke-linecap="round"/>
<path d="M88.6233 181.066C131.259 216.329 120.312 155.952 176.538 160.125C235.938 164.539 354.358 169.111 329.994 113.552C303.231 52.5597 247.763 35.0825 192.215 48.0387C142.922 59.5577 -2.057 106.008 88.6233 181.066Z" stroke="#FF35AE" stroke-opacity="0.5" stroke-width="0.35" stroke-miterlimit="10" stroke-linecap="round"/>
<path d="M89.1351 180.962C130.921 216.667 122.176 155.856 178.236 159.517C237.369 163.382 356.914 168.373 332.13 113.387C304.773 52.715 247.798 34.6193 192.681 47.5584C144.153 58.9541 1.76739 106.31 89.1351 180.962Z" stroke="#FF35AE" stroke-opacity="0.5" stroke-width="0.35" stroke-miterlimit="10" stroke-linecap="round"/>
<path d="M89.6499 180.858C130.601 217.015 124.043 155.76 179.943 158.907C238.796 162.225 359.483 167.627 334.264 113.198C306.3 52.8482 247.835 34.1241 193.173 47.035C145.384 58.3578 5.57718 106.648 89.6499 180.858Z" stroke="#FF35AE" stroke-opacity="0.5" stroke-width="0.35" stroke-miterlimit="10" stroke-linecap="round"/>
<path d="M90.1703 180.752C130.306 217.37 125.915 155.662 181.654 158.322C240.236 161.098 362.022 166.919 336.409 113.032C307.863 52.9996 247.876 33.6531 193.682 46.5656C146.616 57.7735 9.37139 107.033 90.1703 180.752Z" stroke="#FF35AE" stroke-opacity="0.5" stroke-width="0.35" stroke-miterlimit="10" stroke-linecap="round"/>
<path d="M90.6864 180.648C129.962 217.749 127.772 155.568 183.351 157.689C241.648 159.919 364.576 166.156 338.546 112.817C309.388 53.1139 247.898 33.1354 194.138 46.043C147.85 57.1573 13.1436 107.455 90.6864 180.648Z" stroke="#FF35AE" stroke-opacity="0.5" stroke-width="0.35" stroke-miterlimit="10" stroke-linecap="round"/>
<path d="M91.1991 180.544C129.666 218.136 129.637 155.472 185.057 157.085C243.078 158.787 367.12 165.421 340.669 112.643C310.913 53.2472 247.933 32.6403 194.654 45.5273C149.071 56.5562 16.8769 107.917 91.1991 180.544Z" stroke="#FF35AE" stroke-opacity="0.5" stroke-width="0.35" stroke-miterlimit="10" stroke-linecap="round"/>
<path d="M91.7112 180.44C129.324 218.546 131.495 155.377 186.755 156.477C244.49 157.595 369.664 164.686 342.798 112.441C312.44 53.3867 247.949 32.1489 195.171 45.0178C150.303 55.9528 20.6146 108.404 91.7112 180.44Z" stroke="#FF35AE" stroke-opacity="0.5" stroke-width="0.35" stroke-miterlimit="10" stroke-linecap="round"/>
<path d="M92.2329 180.334C128.994 218.966 133.364 155.286 188.463 155.867C245.926 156.475 372.205 163.952 344.939 112.251C313.963 53.5269 247.993 31.6521 195.649 44.51C151.533 55.35 24.3097 108.938 92.2329 180.334Z" stroke="#FF35AE" stroke-opacity="0.5" stroke-width="0.35" stroke-miterlimit="10" stroke-linecap="round"/>
<path d="M92.7462 180.229C128.636 219.385 135.23 155.189 190.174 155.256C247.353 155.325 374.769 163.219 347.078 112.06C315.484 53.6608 248.028 31.1503 196.149 44.0034C152.76 54.7471 27.9862 109.545 92.7462 180.229Z" stroke="#FF35AE" stroke-opacity="0.5" stroke-width="0.35" stroke-miterlimit="10" stroke-linecap="round"/>
<path d="M93.2606 180.125C128.284 219.887 137.091 155.101 191.868 154.649C248.776 154.176 377.276 162.473 349.205 111.866C317.002 53.8087 248.07 30.6539 196.643 43.4924C153.989 54.1448 31.6471 110.164 93.2606 180.125Z" stroke="#FF35AE" stroke-opacity="0.5" stroke-width="0.35" stroke-miterlimit="10" stroke-linecap="round"/>
<path d="M93.7553 180.024C127.88 220.354 138.94 155.014 193.555 154.043C250.18 153.036 379.795 161.768 351.32 111.68C318.518 53.9566 248.086 30.1561 197.143 43.0183C155.204 53.5448 35.2336 110.822 93.7553 180.024Z" stroke="#FF35AE" stroke-opacity="0.5" stroke-width="0.35" stroke-miterlimit="10" stroke-linecap="round"/>
<path d="M94.2937 179.915C127.501 220.849 140.819 154.921 195.273 153.431C251.627 151.888 382.347 161.032 353.471 111.488C320.034 54.0982 248.123 29.6608 197.63 42.4764C156.449 52.9324 38.8043 111.516 94.2937 179.915Z" stroke="#FF35AE" stroke-opacity="0.5" stroke-width="0.35" stroke-miterlimit="10" stroke-linecap="round"/>
<path d="M94.8073 179.81C127.078 221.371 142.686 154.831 196.997 152.817C253.068 150.741 384.895 160.309 355.623 111.294C321.521 54.2517 248.151 29.1601 198.125 41.9709C157.674 52.3172 42.3372 112.243 94.8073 179.81Z" stroke="#FF35AE" stroke-opacity="0.5" stroke-width="0.35" stroke-miterlimit="10" stroke-linecap="round"/>
<path d="M95.3221 179.706C126.633 221.905 144.55 154.748 198.656 152.218C254.451 149.607 387.378 159.599 357.727 111.111C323.047 54.4047 248.181 28.6601 198.614 41.4354C158.904 51.7211 45.8346 113.004 95.3221 179.706Z" stroke="#FF35AE" stroke-opacity="0.5" stroke-width="0.35" stroke-miterlimit="10" stroke-linecap="round"/>
<path d="M95.8357 179.602C126.16 222.457 146.418 154.664 200.385 151.603C255.903 148.458 389.931 158.875 359.878 110.918C324.552 54.5548 248.21 28.1596 199.114 40.955C160.131 51.1123 49.2866 113.792 95.8357 179.602Z" stroke="#FF35AE" stroke-opacity="0.5" stroke-width="0.35" stroke-miterlimit="10" stroke-linecap="round"/>
<path d="M96.3585 179.496C125.653 223.041 148.282 154.575 202.094 150.993C257.361 147.315 392.458 158.157 362.015 110.729C326.056 54.7121 248.247 27.6516 199.616 40.4422C161.362 50.5094 52.6966 114.603 96.3585 179.496Z" stroke="#FF35AE" stroke-opacity="0.5" stroke-width="0.35" stroke-miterlimit="10" stroke-linecap="round"/>
<path d="M96.8702 179.392C125.106 223.64 150.149 154.491 203.799 150.389C258.759 146.183 394.98 157.439 364.15 110.558C327.559 54.8943 248.259 27.1734 200.113 39.9557C162.556 49.9067 56.0562 115.435 96.8702 179.392Z" stroke="#FF35AE" stroke-opacity="0.5" stroke-width="0.35" stroke-miterlimit="10" stroke-linecap="round"/>
<path d="M97.3848 179.287C124.521 224.253 152.037 154.409 205.499 149.781C260.183 145.04 397.5 156.728 366.28 110.35C329.052 55.0409 248.302 26.645 200.603 39.4262C163.818 49.2847 59.372 116.284 97.3848 179.287Z" stroke="#FF35AE" stroke-opacity="0.5" stroke-width="0.35" stroke-miterlimit="10" stroke-linecap="round"/>
<path d="M97.9034 179.182C123.89 224.889 153.851 154.337 207.204 149.172C261.612 143.902 400.011 156.013 368.412 110.162C330.541 55.2076 248.328 26.139 201.097 38.9217C165.044 48.6765 62.6274 117.151 97.9034 179.182Z" stroke="#FF35AE" stroke-opacity="0.5" stroke-width="0.35" stroke-miterlimit="10" stroke-linecap="round"/>
<path d="M98.4181 179.077C123.206 225.535 155.738 154.248 208.904 148.563C263.039 142.771 402.532 155.308 370.544 109.959C332.035 55.3596 248.353 25.6134 201.588 38.3975C166.272 48.0672 65.8404 118.014 98.4181 179.077Z" stroke="#FF35AE" stroke-opacity="0.5" stroke-width="0.35" stroke-miterlimit="10" stroke-linecap="round"/>
<path d="M98.9318 178.973C122.465 226.206 157.614 154.169 210.609 147.947C264.468 141.627 405.044 154.593 372.685 109.775C333.522 55.5457 248.389 25.1182 202.085 37.9051C167.497 47.4525 68.9915 118.883 98.9318 178.973Z" stroke="#FF35AE" stroke-opacity="0.5" stroke-width="0.35" stroke-miterlimit="10" stroke-linecap="round"/>
<path d="M99.4487 178.869C121.643 226.867 159.48 154.092 212.319 147.344C265.898 140.502 407.569 153.926 374.823 109.592C335.01 55.7192 248.419 24.6117 202.587 37.4185C168.73 46.8622 72.0942 119.743 99.4487 178.869Z" stroke="#FF35AE" stroke-opacity="0.5" stroke-width="0.35" stroke-miterlimit="10" stroke-linecap="round"/>
<path d="M99.9667 178.763C120.783 227.542 161.348 154.014 214.017 146.735C267.326 139.364 410.07 153.193 376.965 109.394C336.507 55.8962 248.456 24.0964 203.087 36.8862C169.95 46.2286 75.1332 120.59 99.9667 178.763Z" stroke="#FF35AE" stroke-opacity="0.5" stroke-width="0.35" stroke-miterlimit="10" stroke-linecap="round"/>
<path d="M100.481 178.659C119.84 228.235 163.217 153.931 215.705 146.129C268.74 138.236 412.562 152.501 379.069 109.211C337.977 56.0862 248.474 23.6051 203.568 36.3778C171.176 45.6141 78.1188 121.409 100.481 178.659Z" stroke="#FF35AE" stroke-opacity="0.5" stroke-width="0.35" stroke-miterlimit="10" stroke-linecap="round"/>
<path d="M100.994 178.554C118.806 228.875 165.088 153.981 217.428 145.516C270.202 137.194 415.089 151.802 381.225 109.043C339.462 56.2915 248.5 23.0922 204.074 35.896C172.4 44.9928 81.0488 122.201 100.994 178.554Z" stroke="#FF35AE" stroke-opacity="0.5" stroke-width="0.35" stroke-miterlimit="10" stroke-linecap="round"/>
<path d="M101.528 178.446C117.722 229.564 166.982 153.859 219.147 144.929C271.649 136.065 417.618 151.127 383.372 108.851C340.949 56.4646 248.519 22.4976 204.576 35.3572C173.61 44.3232 83.928 122.945 101.528 178.446Z" stroke="#FF35AE" stroke-opacity="0.5" stroke-width="0.35" stroke-miterlimit="10" stroke-linecap="round"/>
<path d="M102.028 178.344C116.521 230.218 168.834 153.765 220.834 144.297C273.071 134.89 420.104 150.417 385.487 108.639C342.41 56.6493 248.53 21.9814 205.054 34.8363C174.838 43.7269 86.743 123.638 102.028 178.344Z" stroke="#FF35AE" stroke-opacity="0.5" stroke-width="0.35" stroke-miterlimit="10" stroke-linecap="round"/>
<path d="M102.543 178.239C115.244 230.85 170.702 153.669 222.536 143.695C274.488 133.742 422.564 149.776 387.628 108.449C343.842 56.8915 248.567 21.4859 205.552 34.3434C176.073 43.123 89.516 124.263 102.543 178.239Z" stroke="#FF35AE" stroke-opacity="0.5" stroke-width="0.35" stroke-miterlimit="10" stroke-linecap="round"/>
<path d="M103.057 178.135C113.882 231.442 172.569 153.579 224.242 143.085C275.915 132.592 425.123 149.045 389.749 108.262C345.35 57.0542 248.584 20.9882 206.035 33.8411C177.307 42.5515 92.2308 124.823 103.057 178.135Z" stroke="#FF35AE" stroke-opacity="0.5" stroke-width="0.35" stroke-miterlimit="10" stroke-linecap="round"/>
</svg>
